<svg id="SvgjsSvg1001" width="288" height="288" xmlns="http://www.w3.org/2000/svg" version="1.1" xmlns:xlink="http://www.w3.org/1999/xlink" xmlns:svgjs="http://svgjs.com/svgjs"><defs id="SvgjsDefs1002"></defs><g id="SvgjsG1008"><svg xmlns="http://www.w3.org/2000/svg" viewBox="0 0 512 512" width="288" height="288"><path d="m47.2890472 47.8176079v-47.8176079h80.312355v47.8176079zm305.9854889 0v-47.8176079h-80.3123779v47.8176079zm-112.836502 0v-47.8176079h-80.3125v47.8176079zm249.0438995 15.2878303h-466.9022369c-30.1062622.0000305-30.1062622 45.0886841 0 45.0886536h466.9022217c30.0241241 0 30.0241241-45.0886536.0000152-45.0886536zm-23.3707886-15.2878303v-47.8176079h-80.3123474v47.8176079zm-80.3123474 75.6643104v117.1345367h80.3123474v-117.1345367zm-112.8366394 0v201.8516083h80.3123779v-201.8516083zm-112.8366241 0v311.2155762h80.3125v-311.2155762zm-112.8364869 0v388.5180817h80.312355v-388.5180817z" fill="#ffffff" class="color000 svgShape"></path></svg></g></svg>